<svg width="1920" height="1080" viewBox="0 0 1920 1080" fill="none" xmlns="http://www.w3.org/2000/svg">
<rect width="1920" height="1080" fill="white"/>
<rect y="200" width="1920" height="880" fill="url(#paint0_linear_6_2)"/>
<path d="M620.632 566.128C620.376 564.912 620.088 563.76 619.768 562.672C619.512 561.584 619.192 560.56 618.808 559.6L627.448 558.064C627.512 558.96 627.64 560.048 627.832 561.328C628.024 562.544 628.184 563.664 628.312 564.688C628.44 565.328 628.728 566.832 629.176 569.2C629.624 571.504 630.168 574.416 630.808 577.936C631.512 581.456 632.28 585.264 633.112 589.36C633.944 593.456 634.776 597.584 635.608 601.744C636.44 605.904 637.208 609.808 637.912 613.456C638.616 617.104 639.224 620.208 639.736 622.768C640.312 625.328 640.696 627.056 640.888 627.952C641.208 629.36 641.56 630.832 641.944 632.368C642.328 633.904 642.744 635.344 643.192 636.688L634.456 638.32C634.2 636.72 633.976 635.184 633.784 633.712C633.592 632.176 633.336 630.704 633.016 629.296C632.888 628.464 632.568 626.8 632.056 624.304C631.608 621.744 631.032 618.672 630.328 615.088C629.624 611.504 628.856 607.664 628.024 603.568C627.192 599.408 626.36 595.28 625.528 591.184C624.76 587.088 624.024 583.28 623.32 579.76C622.616 576.24 622.008 573.264 621.496 570.832C621.048 568.4 620.76 566.832 620.632 566.128ZM593.56 579.952C594.712 579.888 595.928 579.824 597.208 579.76C598.552 579.632 599.992 579.472 601.528 579.28C603 579.088 605.048 578.832 607.672 578.512C610.296 578.128 613.24 577.712 616.504 577.264C619.832 576.752 623.256 576.208 626.776 575.632C630.36 575.056 633.816 574.512 637.144 574C640.472 573.424 643.48 572.912 646.168 572.464C648.856 572.016 650.968 571.632 652.504 571.312C653.912 571.056 655.192 570.8 656.344 570.544C657.56 570.224 658.552 569.936 659.32 569.68L660.952 577.84C660.248 577.904 659.224 578.032 657.88 578.224C656.6 578.352 655.32 578.512 654.04 578.704C652.376 578.96 650.168 579.312 647.416 579.76C644.664 580.208 641.592 580.72 638.2 581.296C634.872 581.808 631.448 582.352 627.928 582.928C624.408 583.44 620.984 583.984 617.656 584.56C614.392 585.072 611.48 585.552 608.92 586C606.36 586.384 604.376 586.704 602.968 586.96C601.624 587.152 600.344 587.376 599.128 587.632C597.976 587.888 596.664 588.208 595.192 588.592L593.56 579.952ZM593.272 607.696C594.424 607.632 595.8 607.536 597.4 607.408C599 607.216 600.44 607.024 601.72 606.832C603.448 606.64 605.752 606.32 608.632 605.872C611.576 605.424 614.872 604.912 618.52 604.336C622.232 603.696 626.04 603.056 629.944 602.416C633.912 601.776 637.752 601.136 641.464 600.496C645.176 599.856 648.568 599.28 651.64 598.768C654.776 598.192 657.272 597.744 659.128 597.424C660.984 597.104 662.616 596.784 664.024 596.464C665.432 596.144 666.648 595.856 667.672 595.6L669.208 603.664C668.248 603.728 667 603.888 665.464 604.144C663.992 604.336 662.36 604.592 660.568 604.912C658.456 605.232 655.8 605.648 652.6 606.16C649.464 606.672 646.04 607.248 642.328 607.888C638.616 608.464 634.808 609.072 630.904 609.712C627.064 610.288 623.352 610.896 619.768 611.536C616.184 612.112 612.984 612.656 610.168 613.168C607.352 613.616 605.112 614 603.448 614.32C601.592 614.64 599.96 614.928 598.552 615.184C597.208 615.44 596.024 615.728 595 616.048L593.272 607.696ZM716.46 575.248C716.652 576.08 716.844 577.008 717.036 578.032C717.292 579.056 717.548 580.176 717.804 581.392C718.188 582.736 718.732 584.816 719.436 587.632C720.204 590.384 721.1 593.552 722.124 597.136C723.148 600.72 724.172 604.432 725.196 608.272C726.284 612.048 727.308 615.696 728.268 619.216C729.292 622.736 730.156 625.808 730.86 628.432C731.628 630.992 732.172 632.848 732.492 634C732.748 634.576 732.972 635.248 733.164 636.016C733.42 636.848 733.676 637.648 733.932 638.416C734.188 639.248 734.412 639.952 734.604 640.528L726.444 642.64C726.316 641.552 726.124 640.4 725.868 639.184C725.676 638.032 725.388 636.848 725.004 635.632C724.684 634.544 724.14 632.656 723.372 629.968C722.668 627.28 721.804 624.144 720.78 620.56C719.82 616.976 718.828 613.264 717.804 609.424C716.78 605.584 715.756 601.872 714.732 598.288C713.772 594.704 712.908 591.568 712.14 588.88C711.436 586.128 710.892 584.176 710.508 583.024C710.188 581.808 709.836 580.72 709.452 579.76C709.068 578.8 708.652 577.968 708.204 577.264L716.46 575.248ZM762.54 588.4C761.58 590.448 760.268 592.752 758.604 595.312C757.004 597.872 755.212 600.464 753.228 603.088C751.308 605.712 749.356 608.208 747.372 610.576C745.452 612.88 743.692 614.832 742.092 616.432L735.276 613.072C737.324 611.344 739.404 609.328 741.516 607.024C743.628 604.656 745.612 602.256 747.468 599.824C749.324 597.392 750.764 595.216 751.788 593.296C751.212 593.36 749.868 593.616 747.756 594.064C745.708 594.512 743.148 595.056 740.076 595.696C737.068 596.272 733.772 596.912 730.188 597.616C726.604 598.32 722.988 599.056 719.34 599.824C715.756 600.528 712.364 601.2 709.164 601.84C705.964 602.48 703.18 603.056 700.812 603.568C698.508 604.016 696.876 604.336 695.916 604.528L693.996 597.232C695.34 597.104 696.62 596.976 697.836 596.848C699.116 596.656 700.492 596.432 701.964 596.176C702.604 596.048 703.916 595.792 705.9 595.408C707.948 595.024 710.412 594.576 713.292 594.064C716.236 593.488 719.372 592.912 722.7 592.336C726.028 591.696 729.356 591.056 732.684 590.416C736.076 589.776 739.244 589.168 742.188 588.592C745.132 588.016 747.66 587.536 749.772 587.152C751.884 586.704 753.324 586.384 754.092 586.192C754.668 586.064 755.276 585.904 755.916 585.712C756.62 585.456 757.228 585.232 757.74 585.04L762.54 588.4ZM822.368 578.704C822.816 579.664 823.392 581.104 824.096 583.024C824.8 584.88 825.536 586.864 826.304 588.976C827.136 591.088 827.872 593.104 828.512 595.024C829.152 596.88 829.632 598.352 829.952 599.44L822.848 601.936C822.592 600.848 822.144 599.376 821.504 597.52C820.928 595.664 820.256 593.68 819.488 591.568C818.72 589.392 817.952 587.376 817.184 585.52C816.416 583.664 815.808 582.192 815.36 581.104L822.368 578.704ZM857.12 584.08C856.8 585.04 856.512 585.936 856.256 586.768C856.064 587.536 855.872 588.24 855.68 588.88C854.4 594.128 852.672 599.28 850.496 604.336C848.32 609.328 845.504 614 842.048 618.352C837.632 623.984 832.64 628.688 827.072 632.464C821.568 636.24 816.128 639.152 810.752 641.2L804.416 634.768C808.128 633.616 811.872 632.08 815.648 630.16C819.488 628.24 823.104 625.936 826.496 623.248C829.952 620.56 832.992 617.584 835.616 614.32C837.92 611.504 839.968 608.336 841.76 604.816C843.616 601.296 845.152 597.552 846.368 593.584C847.584 589.616 848.416 585.584 848.864 581.488L857.12 584.08ZM800.096 583.504C800.608 584.592 801.248 586.064 802.016 587.92C802.784 589.776 803.584 591.824 804.416 594.064C805.312 596.24 806.144 598.352 806.912 600.4C807.744 602.384 808.384 603.984 808.832 605.2L801.536 607.888C801.152 606.672 800.576 605.04 799.808 602.992C799.104 600.88 798.304 598.704 797.408 596.464C796.512 594.224 795.648 592.176 794.816 590.32C794.048 588.464 793.44 587.12 792.992 586.288L800.096 583.504ZM888.436 567.28C890.868 567.344 893.94 567.376 897.652 567.376C901.428 567.312 905.364 567.152 909.46 566.896C913.556 566.576 917.3 566.224 920.692 565.84C922.868 565.52 925.14 565.168 927.508 564.784C929.94 564.336 932.276 563.856 934.516 563.344C936.82 562.832 938.932 562.32 940.852 561.808C942.772 561.296 944.308 560.784 945.46 560.272L950.548 566.896C949.46 567.152 948.468 567.408 947.572 567.664C946.676 567.92 945.876 568.144 945.172 568.336C943.316 568.784 941.14 569.264 938.644 569.776C936.212 570.288 933.62 570.8 930.868 571.312C928.18 571.76 925.524 572.144 922.9 572.464C919.38 572.976 915.636 573.36 911.668 573.616C907.764 573.872 903.956 574.064 900.244 574.192C896.532 574.256 893.236 574.32 890.356 574.384L888.436 567.28ZM893.812 632.656C899.316 630.096 903.86 627.024 907.444 623.44C911.092 619.856 913.812 615.568 915.604 610.576C917.396 605.584 918.292 599.792 918.292 593.2C918.292 593.2 918.292 592.304 918.292 590.512C918.292 588.656 918.292 586.128 918.292 582.928C918.292 579.664 918.292 575.824 918.292 571.408L926.068 570.352C926.068 571.888 926.068 573.648 926.068 575.632C926.068 577.552 926.068 579.568 926.068 581.68C926.068 583.728 926.068 585.616 926.068 587.344C926.068 589.072 926.068 590.48 926.068 591.568C926.068 592.592 926.068 593.104 926.068 593.104C926.068 599.888 925.236 606.032 923.572 611.536C921.972 616.976 919.348 621.872 915.7 626.224C912.116 630.576 907.348 634.48 901.396 637.936L893.812 632.656ZM880.948 590.128C882.036 590.192 883.348 590.288 884.884 590.416C886.42 590.48 887.924 590.512 889.396 590.512C890.292 590.512 891.988 590.512 894.484 590.512C896.98 590.512 899.988 590.512 903.508 590.512C907.092 590.512 910.9 590.512 914.932 590.512C919.028 590.512 923.092 590.512 927.124 590.512C931.22 590.512 935.028 590.512 938.548 590.512C942.068 590.512 945.076 590.512 947.572 590.512C950.068 590.512 951.732 590.512 952.564 590.512C953.268 590.512 954.068 590.512 954.964 590.512C955.924 590.448 956.852 590.384 957.748 590.32C958.708 590.256 959.508 590.192 960.148 590.128V598.096C959.124 597.968 957.94 597.872 956.596 597.808C955.252 597.744 953.972 597.712 952.756 597.712C951.924 597.712 950.26 597.712 947.764 597.712C945.332 597.712 942.324 597.712 938.74 597.712C935.22 597.712 931.412 597.712 927.316 597.712C923.284 597.712 919.22 597.712 915.124 597.712C911.028 597.712 907.188 597.712 903.604 597.712C900.02 597.712 896.98 597.712 894.484 597.712C892.052 597.712 890.42 597.712 889.588 597.712C888.052 597.712 886.516 597.744 884.98 597.808C883.508 597.872 882.164 597.968 880.948 598.096V590.128ZM985.512 568.144C987.112 568.336 988.872 568.496 990.792 568.624C992.712 568.688 994.44 568.72 995.976 568.72H1043.3C1044.46 568.72 1045.67 568.72 1046.95 568.72C1048.3 568.656 1049.45 568.592 1050.41 568.528C1050.34 569.616 1050.28 570.864 1050.22 572.272C1050.15 573.616 1050.12 574.864 1050.12 576.016V625.552C1050.12 627.28 1050.15 629.072 1050.22 630.928C1050.34 632.784 1050.44 634.096 1050.5 634.864H1041.86C1041.93 634.096 1041.96 632.944 1041.96 631.408C1042.02 629.808 1042.06 628.144 1042.06 626.416V576.4H996.072C994.28 576.4 992.328 576.432 990.216 576.496C988.168 576.56 986.6 576.624 985.512 576.688V568.144ZM984.264 621.136C985.48 621.264 987.048 621.392 988.968 621.52C990.952 621.648 992.936 621.712 994.92 621.712H1046.38V629.488H995.112C993.192 629.488 991.208 629.52 989.16 629.584C987.176 629.648 985.544 629.744 984.264 629.872V621.136ZM1138.36 567.088C1138.36 568.816 1138.97 570.288 1140.19 571.504C1141.4 572.72 1142.91 573.328 1144.7 573.328C1146.43 573.328 1147.9 572.72 1149.12 571.504C1150.4 570.288 1151.04 568.816 1151.04 567.088C1151.04 565.296 1150.4 563.792 1149.12 562.576C1147.9 561.296 1146.43 560.656 1144.7 560.656C1142.91 560.656 1141.4 561.296 1140.19 562.576C1138.97 563.792 1138.36 565.296 1138.36 567.088ZM1133.95 567.088C1133.95 565.104 1134.43 563.28 1135.39 561.616C1136.35 559.952 1137.63 558.64 1139.23 557.68C1140.89 556.72 1142.72 556.24 1144.7 556.24C1146.68 556.24 1148.48 556.72 1150.08 557.68C1151.74 558.64 1153.05 559.952 1154.01 561.616C1154.97 563.28 1155.45 565.104 1155.45 567.088C1155.45 569.008 1154.97 570.8 1154.01 572.464C1153.05 574.064 1151.74 575.344 1150.08 576.304C1148.48 577.264 1146.68 577.744 1144.7 577.744C1142.72 577.744 1140.89 577.264 1139.23 576.304C1137.63 575.344 1136.35 574.064 1135.39 572.464C1134.43 570.8 1133.95 569.008 1133.95 567.088ZM1092.28 562C1092.16 563.088 1092.03 564.336 1091.9 565.744C1091.84 567.088 1091.8 568.432 1091.8 569.776C1091.8 570.608 1091.8 572.272 1091.8 574.768C1091.8 577.2 1091.8 580.144 1091.8 583.6C1091.8 586.992 1091.8 590.608 1091.8 594.448C1091.8 598.224 1091.8 601.872 1091.8 605.392C1091.8 608.912 1091.8 612.016 1091.8 614.704C1091.8 617.328 1091.8 619.248 1091.8 620.464C1091.8 622.896 1092.32 624.592 1093.34 625.552C1094.43 626.448 1096.16 627.12 1098.52 627.568C1100.06 627.824 1101.95 628.016 1104.19 628.144C1106.49 628.272 1108.83 628.336 1111.2 628.336C1113.76 628.336 1116.51 628.272 1119.45 628.144C1122.4 628.016 1125.37 627.824 1128.38 627.568C1131.45 627.312 1134.33 626.992 1137.02 626.608C1139.71 626.224 1142.04 625.776 1144.03 625.264V634C1141.28 634.448 1137.95 634.8 1134.04 635.056C1130.2 635.376 1126.24 635.6 1122.14 635.728C1118.11 635.92 1114.33 636.016 1110.81 636.016C1108 636.016 1105.21 635.92 1102.46 635.728C1099.77 635.6 1097.44 635.376 1095.45 635.056C1091.74 634.416 1088.89 633.168 1086.91 631.312C1084.92 629.392 1083.93 626.48 1083.93 622.576C1083.93 620.976 1083.93 618.736 1083.93 615.856C1083.93 612.976 1083.93 609.68 1083.93 605.968C1083.93 602.256 1083.93 598.48 1083.93 594.64C1083.93 590.736 1083.93 587.056 1083.93 583.6C1083.93 580.144 1083.93 577.2 1083.93 574.768C1083.93 572.272 1083.93 570.608 1083.93 569.776C1083.93 568.944 1083.9 568.08 1083.84 567.184C1083.84 566.288 1083.77 565.392 1083.64 564.496C1083.58 563.536 1083.48 562.704 1083.36 562H1092.28ZM1088.25 592.24C1091.13 591.6 1094.3 590.832 1097.76 589.936C1101.28 588.976 1104.83 587.952 1108.41 586.864C1112.06 585.776 1115.58 584.624 1118.97 583.408C1122.43 582.192 1125.53 580.976 1128.28 579.76C1129.76 579.12 1131.2 578.448 1132.6 577.744C1134.01 577.04 1135.39 576.272 1136.73 575.44L1140.09 583.12C1138.75 583.696 1137.24 584.336 1135.58 585.04C1133.98 585.68 1132.48 586.288 1131.07 586.864C1128.06 588.08 1124.7 589.328 1120.99 590.608C1117.34 591.888 1113.56 593.136 1109.66 594.352C1105.76 595.504 1101.95 596.592 1098.24 597.616C1094.59 598.64 1091.26 599.504 1088.25 600.208V592.24ZM1171.79 592.432C1172.75 592.496 1173.94 592.592 1175.34 592.72C1176.75 592.784 1178.29 592.848 1179.95 592.912C1181.68 592.912 1183.41 592.912 1185.14 592.912C1186.16 592.912 1187.73 592.912 1189.84 592.912C1192.02 592.912 1194.54 592.912 1197.42 592.912C1200.3 592.912 1203.34 592.912 1206.54 592.912C1209.81 592.912 1213.04 592.912 1216.24 592.912C1219.5 592.912 1222.58 592.912 1225.46 592.912C1228.4 592.912 1230.93 592.912 1233.04 592.912C1235.15 592.912 1236.72 592.912 1237.74 592.912C1240.18 592.912 1242.26 592.848 1243.98 592.72C1245.71 592.592 1247.09 592.496 1248.11 592.432V601.84C1247.15 601.776 1245.71 601.68 1243.79 601.552C1241.94 601.424 1239.95 601.36 1237.84 601.36C1236.82 601.36 1235.22 601.36 1233.04 601.36C1230.86 601.36 1228.34 601.36 1225.46 601.36C1222.64 601.36 1219.6 601.36 1216.34 601.36C1213.07 601.36 1209.81 601.36 1206.54 601.36C1203.34 601.36 1200.3 601.36 1197.42 601.36C1194.61 601.36 1192.11 601.36 1189.94 601.36C1187.76 601.36 1186.16 601.36 1185.14 601.36C1182.51 601.36 1180.02 601.424 1177.65 601.552C1175.28 601.616 1173.33 601.712 1171.79 601.84V592.432Z" fill="white"/>
<rect width="1920" height="200" fill="white"/>
<path d="M190 25L254.952 137.5H125.048L190 25Z" fill="#D9D9D9"/>
<path d="M243 25L307.952 137.5H178.048L243 25Z" fill="#D9D9D9"/>
<path d="M294 25L358.952 137.5H229.048L294 25Z" fill="#D9D9D9"/>
<path d="M202.168 132.152V123.512H193.432V113.816H203.128V122.552H228.28V106.04H202.168V97.4H193.432V79.16H202.168V70.424H229.24V79.16H238.072V88.76H228.28V80.12H203.128V96.536H229.24V105.08H238.072V123.512H229.24V132.152H202.168ZM250.182 131V121.304H259.878V131H250.182ZM271.963 132.152V79.16H280.699V70.424H290.299V80.12H281.659V96.536H289.339V87.8H298.171V79.16H306.811V70.424H316.603V80.12H307.771V88.76H299.131V97.4H290.299V105.08H299.131V113.816H307.771V122.552H316.603V132.152H306.811V123.512H298.171V114.776H289.339V106.04H281.659V132.152H271.963ZM333.033 88.76V83.384H337.449V80.12H328.713V70.424H338.409V79.16H342.729V84.344H338.409V88.76H333.033ZM354.807 132.152V122.552H389.655V114.776H363.543V106.04H354.807V96.536H363.543V87.8H399.447V97.4H364.503V105.08H390.615V113.816H399.447V123.512H390.615V132.152H354.807ZM431.276 132.152V79.16H440.012V70.424H467.084V79.16H475.916V106.04H467.084V114.776H440.972V132.152H431.276ZM440.972 105.08H466.124V80.12H440.972V105.08ZM493.855 132.152V123.512H485.119V96.536H493.855V87.8H520.927V96.536H529.759V123.512H520.927V132.152H493.855ZM494.815 122.552H519.967V97.4H494.815V122.552ZM541.869 132.152V96.536H550.605V87.8H577.677V96.536H586.509V106.04H576.717V97.4H551.565V132.152H541.869ZM615.995 132.152V123.512H607.355V97.4H598.619V87.8H607.355V70.424H616.955V87.8H643.259V97.4H616.955V122.552H642.299V113.816H651.995V123.512H643.259V132.152H615.995ZM662.213 132.152V79.16H670.949V70.424H698.021V79.16H706.853V88.76H697.061V80.12H671.909V96.536H689.381V106.04H671.909V132.152H662.213ZM718.137 132.152V123.512H709.401V96.536H718.137V87.8H745.209V96.536H754.041V123.512H745.209V132.152H718.137ZM719.097 122.552H744.249V97.4H719.097V122.552ZM766.151 132.152V70.424H775.847V132.152H766.151ZM787.932 132.152V87.8H797.628V132.152H787.932ZM787.932 80.12V70.424H797.628V80.12H787.932ZM816.574 132.152V123.512H807.838V96.536H816.574V87.8H843.646V96.536H852.478V123.512H843.646V132.152H816.574ZM817.534 122.552H842.686V97.4H817.534V122.552Z" fill="#008000"/>
<defs>
<linearGradient id="paint0_linear_6_2" x1="960" y1="200" x2="960" y2="1080" gradientUnits="userSpaceOnUse">
<stop stop-color="#008000"/>
<stop offset="1" stop-color="#00BFFF"/>
</linearGradient>
</defs>
</svg>
